<svg width="37" height="54" viewBox="0 0 37 54" fill="none" xmlns="http://www.w3.org/2000/svg">
<path d="M14.1608 41.7657C9.26839 42.4339 5.77377 45.1409 5.77377 47.2113C5.77377 49.8561 11.4758 52 18.5096 52C25.5434 52 31.2455 49.8561 31.2455 47.2113C31.2455 44.9695 27.1483 42.1441 21.6159 41.6227" stroke="#252B33" stroke-width="3.5"/>
<path d="M5.11382 28.4863C3.92323 26.8119 3.0293 24.901 2.51143 22.8351C2.17757 21.5032 2 20.1069 2 18.6681C2 9.46254 9.268 2 18.2335 2C27.1991 2 34.4671 9.46254 34.4671 18.6681C34.4671 20.1069 34.2895 21.5032 33.9556 22.8351C33.4378 24.901 32.5438 26.8119 31.3532 28.4863" stroke="#252B33" stroke-width="3.5"/>
<path d="M2.85449 23.7872C5.41768 31.0496 18.2336 47.2831 18.2336 47.2831C18.2336 47.2831 31.4768 30.1952 33.6128 23.7872" stroke="#252B33" stroke-width="3.5" stroke-linecap="round" stroke-linejoin="round"/>
<circle cx="18.0378" cy="17.0943" r="5.79717" stroke="url(#paint0_linear_3_4597)" stroke-width="3.5"/>
<defs>
<linearGradient id="paint0_linear_3_4597" x1="18.0378" y1="9.54712" x2="18.0378" y2="24.6415" gradientUnits="userSpaceOnUse">
<stop stop-color="#F0745E"/>
<stop offset="1" stop-color="#FF330F"/>
</linearGradient>
</defs>
</svg>
