<svg width="50" height="50" viewBox="0 0 50 50" fill="none" xmlns="http://www.w3.org/2000/svg">
<path d="M6 16.2858V46.0001C6 47.1046 6.89543 48.0001 8 48.0001H41.7143C42.8189 48.0001 43.7143 47.1046 43.7143 46.0001V16.2858" stroke="#252B33" stroke-width="3.5"/>
<path d="M40.1256 1.88321L46.8105 14.5357H2.90383L9.58865 1.88321L8.04134 1.06571L9.58866 1.88321C9.63195 1.80127 9.71702 1.75 9.8097 1.75H39.9046C39.9973 1.75 40.0823 1.80127 40.1256 1.88321ZM47.3911 15.6348L47.3918 15.6361L47.3911 15.6348Z" stroke="#252B33" stroke-width="3.5" stroke-linecap="round" stroke-linejoin="round"/>
<path d="M12.8573 24.8572H16.2859L17.5716 27.4286M17.5716 27.4286L20.5716 35.5715H32.5716L35.1431 27.4286H17.5716Z" stroke="url(#paint0_linear_3_4586)" stroke-width="3.5" stroke-linecap="round" stroke-linejoin="round"/>
<circle cx="22.9284" cy="40.5" r="1.5" fill="url(#paint1_linear_3_4586)"/>
<circle cx="30.6428" cy="40.5" r="1.5" fill="url(#paint2_linear_3_4586)"/>
<defs>
<linearGradient id="paint0_linear_3_4586" x1="24.0002" y1="24.8572" x2="24.0002" y2="35.5715" gradientUnits="userSpaceOnUse">
<stop stop-color="#F0745E"/>
<stop offset="1" stop-color="#FF330F"/>
</linearGradient>
<linearGradient id="paint1_linear_3_4586" x1="22.9284" y1="39" x2="22.9284" y2="42" gradientUnits="userSpaceOnUse">
<stop stop-color="#F0745E"/>
<stop offset="1" stop-color="#FF330F"/>
</linearGradient>
<linearGradient id="paint2_linear_3_4586" x1="30.6428" y1="39" x2="30.6428" y2="42" gradientUnits="userSpaceOnUse">
<stop stop-color="#F0745E"/>
<stop offset="1" stop-color="#FF330F"/>
</linearGradient>
</defs>
</svg>
