<svg width="51" height="51" viewBox="0 0 51 51" fill="none" xmlns="http://www.w3.org/2000/svg">
<path d="M9.8926 46.7237L12.5882 46.4734C16.3238 46.1269 19.8071 49.2135 23.273 48.8917C27.0596 48.5459 37.1496 41.6789 47.6275 34.8412C48.3074 34.3979 48.5566 33.4604 48.1427 32.7427C46.0086 29.0372 42.6359 27.9086 39.8748 29.2069L30.8536 33.5944C29.9401 31.9282 28.5567 30.1924 25.9018 30.6689L18.0192 32.1622C15.2816 32.3962 13.365 29.9051 10.7014 30.1521L8.94922 30.3793" stroke="#252B33" stroke-width="3.5"/>
<path d="M31.4555 33.6013C28.7814 34.868 22.5889 38.668 20.0555 38.668" stroke="#252B33" stroke-width="3.5" stroke-linecap="round"/>
<path d="M8.3833 28.9298V47.9062H1.75V28.9298H8.3833Z" stroke="#252B33" stroke-width="3.5"/>
<path d="M22.3768 1.75H27.4713V7.81951C27.0725 7.74773 26.659 7.78453 26.2754 7.92992C26.2754 7.92992 26.2754 7.92993 26.2754 7.92993L24.924 8.44201L23.5727 7.92993C23.5727 7.92993 23.5727 7.92992 23.5727 7.92992C23.189 7.78453 22.7755 7.74773 22.3768 7.81951V1.75ZM24.4811 8.60986C24.4814 8.60975 24.4817 8.60965 24.4819 8.60954L24.4811 8.60986Z" stroke="#F47342" stroke-width="3.5" stroke-linejoin="round"/>
<rect x="13.7823" y="1.75" width="22.2836" height="22.2836" rx="3.25" stroke="url(#paint0_linear_3_4576)" stroke-width="3.5"/>
<defs>
<linearGradient id="paint0_linear_3_4576" x1="24.9242" y1="0" x2="24.9242" y2="25.7836" gradientUnits="userSpaceOnUse">
<stop stop-color="#F0745E"/>
<stop offset="1" stop-color="#FF330F"/>
</linearGradient>
</defs>
</svg>
